<svg width="244" height="67" viewBox="0 0 244 67" fill="none" xmlns="http://www.w3.org/2000/svg">
<g clip-path="url(#clip0_274_489)">
<rect width="244" height="66.5455" fill="white"/>
<g clip-path="url(#clip1_274_489)">
<path d="M8.8728 11.753V55.2922C8.8728 58.3125 11.319 60.7587 14.3393 60.7587H46.6608C49.6812 60.7587 52.1273 58.3125 52.1273 55.2922V11.753C52.1273 8.73265 49.6812 6.28647 46.6608 6.28647H14.3393C11.319 6.28647 8.8728 8.73265 8.8728 11.753ZM18.3729 55.2922C16.3658 55.2922 14.7398 53.6662 14.7398 51.6591C14.7398 49.652 16.3658 48.026 18.3729 48.026C20.38 48.026 22.006 49.652 22.006 51.6591C22.006 53.6662 20.38 55.2922 18.3729 55.2922ZM18.3729 44.5135C16.3658 44.5135 14.7398 42.8876 14.7398 40.8805C14.7398 38.8733 16.3658 37.2474 18.3729 37.2474C20.38 37.2474 22.006 38.8733 22.006 40.8805C22.006 42.8876 20.38 44.5135 18.3729 44.5135ZM18.3729 33.7397C16.3658 33.7397 14.7398 32.1138 14.7398 30.1066C14.7398 28.0995 16.3658 26.4735 18.3729 26.4735C20.38 26.4735 22.006 28.0995 22.006 30.1066C22.006 32.1138 20.38 33.7397 18.3729 33.7397ZM30.5025 55.2922C28.4954 55.2922 26.8694 53.6662 26.8694 51.6591C26.8694 49.652 28.4954 48.026 30.5025 48.026C32.5096 48.026 34.1356 49.652 34.1356 51.6591C34.1356 53.6662 32.5096 55.2922 30.5025 55.2922ZM30.5025 44.5135C28.4954 44.5135 26.8694 42.8876 26.8694 40.8805C26.8694 38.8733 28.4954 37.2474 30.5025 37.2474C32.5096 37.2474 34.1356 38.8733 34.1356 40.8805C34.1356 42.8876 32.5096 44.5135 30.5025 44.5135ZM30.5025 33.7397C28.4954 33.7397 26.8694 32.1138 26.8694 30.1066C26.8694 28.0995 28.4954 26.4735 30.5025 26.4735C32.5096 26.4735 34.1356 28.0995 34.1356 30.1066C34.1356 32.1138 32.5096 33.7397 30.5025 33.7397ZM42.6321 55.2922C40.625 55.2922 38.999 53.6662 38.999 51.6591C38.999 49.652 40.625 48.026 42.6321 48.026C44.6392 48.026 46.2652 49.652 46.2652 51.6591C46.2652 53.6662 44.6392 55.2922 42.6321 55.2922ZM42.6321 44.5135C40.625 44.5135 38.999 42.8876 38.999 40.8805C38.999 38.8733 40.625 37.2474 42.6321 37.2474C44.6392 37.2474 46.2652 38.8733 46.2652 40.8805C46.2652 42.8876 44.6392 44.5135 42.6321 44.5135ZM42.6321 33.7397C40.625 33.7397 38.999 32.1138 38.999 30.1066C38.999 28.0995 40.625 26.4735 42.6321 26.4735C44.6392 26.4735 46.2652 28.0995 46.2652 30.1066C46.2652 32.1138 44.6392 33.7397 42.6321 33.7397ZM42.6321 21.9189H18.3729C16.3658 21.9189 14.7398 20.2929 14.7398 18.2858V14.8168C14.7398 12.8096 16.3658 11.1837 18.3729 11.1837H42.6321C44.6392 11.1837 46.2652 12.8096 46.2652 14.8168V18.2858C46.2652 20.2929 44.6392 21.9189 42.6321 21.9189Z" fill="#FE7B79"/>
<circle cx="42.7001" cy="30.2227" r="3.88182" fill="#3F4075"/>
</g>
<path d="M73.0509 58.4091H68.6909C66.5842 58.4091 64.9575 57.8491 63.8109 56.7291C62.6642 55.6091 62.0909 53.9958 62.0909 51.8891V39.2091C62.0909 37.1024 62.6642 35.4891 63.8109 34.3691C64.9575 33.2491 66.5842 32.6891 68.6909 32.6891H73.0509C75.1309 32.6891 76.7442 33.2624 77.8909 34.4091C79.0642 35.5291 79.6509 37.1291 79.6509 39.2091V41.0891C79.6509 41.6758 79.3575 41.9691 78.7709 41.9691H75.4109C74.8509 41.9691 74.5709 41.6758 74.5709 41.0891V39.4491C74.5709 38.5958 74.3842 37.9958 74.0109 37.6491C73.6642 37.2758 73.0642 37.0891 72.2109 37.0891H69.4909C68.6642 37.0891 68.0642 37.2758 67.6909 37.6491C67.3442 37.9958 67.1709 38.5958 67.1709 39.4491V51.6491C67.1709 52.5024 67.3442 53.1158 67.6909 53.4891C68.0642 53.8358 68.6642 54.0091 69.4909 54.0091H72.2109C73.0642 54.0091 73.6642 53.8358 74.0109 53.4891C74.3842 53.1158 74.5709 52.5024 74.5709 51.6491V50.0091C74.5709 49.4224 74.8509 49.1291 75.4109 49.1291H78.7709C79.3575 49.1291 79.6509 49.4224 79.6509 50.0091V51.8891C79.6509 53.9691 79.0642 55.5824 77.8909 56.7291C76.7442 57.8491 75.1309 58.4091 73.0509 58.4091ZM90.3743 58.4091H89.4143C87.3076 58.4091 85.681 57.8491 84.5343 56.7291C83.3876 55.6091 82.8143 53.9958 82.8143 51.8891V44.5291C82.8143 42.4224 83.3876 40.8091 84.5343 39.6891C85.681 38.5691 87.3076 38.0091 89.4143 38.0091H98.6543C99.241 38.0091 99.5343 38.2891 99.5343 38.8491V57.5691C99.5343 58.1291 99.241 58.4091 98.6543 58.4091H95.2943C94.7343 58.4091 94.4543 58.1291 94.4543 57.5691V56.2491H94.2943C94.001 56.9691 93.481 57.5158 92.7343 57.8891C91.9876 58.2358 91.201 58.4091 90.3743 58.4091ZM94.4543 50.9691V42.8491C94.4543 42.5558 94.2943 42.4091 93.9743 42.4091H90.2143C89.361 42.4091 88.761 42.5958 88.4143 42.9691C88.0676 43.3158 87.8943 43.9158 87.8943 44.7691V51.6491C87.8943 52.5024 88.0676 53.1158 88.4143 53.4891C88.761 53.8358 89.361 54.0091 90.2143 54.0091H91.6943C93.5343 54.0091 94.4543 52.9958 94.4543 50.9691ZM107.957 58.4091H104.557C103.997 58.4091 103.717 58.1291 103.717 57.5691V31.1291C103.717 30.5691 103.997 30.2891 104.557 30.2891H107.957C108.517 30.2891 108.797 30.5691 108.797 31.1291V57.5691C108.797 58.1291 108.517 58.4091 107.957 58.4091ZM126 54.8491V57.6091C126 57.9024 125.934 58.1158 125.8 58.2491C125.694 58.3558 125.48 58.4091 125.16 58.4091H119.2C117.094 58.4091 115.467 57.8491 114.32 56.7291C113.174 55.6091 112.6 53.9958 112.6 51.8891V44.5291C112.6 42.4224 113.174 40.8091 114.32 39.6891C115.467 38.5691 117.094 38.0091 119.2 38.0091H125.16C125.72 38.0091 126 38.2891 126 38.8491V41.6091C126 41.9024 125.934 42.1158 125.8 42.2491C125.694 42.3558 125.48 42.4091 125.16 42.4091H120C119.174 42.4091 118.574 42.5958 118.2 42.9691C117.854 43.3158 117.68 43.9158 117.68 44.7691V51.6491C117.68 52.5024 117.854 53.1158 118.2 53.4891C118.574 53.8358 119.174 54.0091 120 54.0091H125.16C125.72 54.0091 126 54.2891 126 54.8491ZM136.406 58.4091H135.086C133.032 58.4091 131.472 57.8491 130.406 56.7291C129.366 55.6091 128.846 53.9958 128.846 51.8891V38.8491C128.846 38.2891 129.126 38.0091 129.686 38.0091H133.086C133.646 38.0091 133.926 38.2891 133.926 38.8491V51.6491C133.926 52.5024 134.099 53.1158 134.446 53.4891C134.819 53.8358 135.419 54.0091 136.246 54.0091H137.726C139.566 54.0091 140.486 52.9958 140.486 50.9691V38.8491C140.486 38.2891 140.766 38.0091 141.326 38.0091H144.686C145.272 38.0091 145.566 38.2891 145.566 38.8491V57.5691C145.566 58.1291 145.272 58.4091 144.686 58.4091H141.326C140.766 58.4091 140.486 58.1291 140.486 57.5691V56.2491H140.326C140.032 56.9691 139.512 57.5158 138.766 57.8891C138.019 58.2358 137.232 58.4091 136.406 58.4091ZM154.023 58.4091H150.623C150.063 58.4091 149.783 58.1291 149.783 57.5691V31.1291C149.783 30.5691 150.063 30.2891 150.623 30.2891H154.023C154.583 30.2891 154.863 30.5691 154.863 31.1291V57.5691C154.863 58.1291 154.583 58.4091 154.023 58.4091ZM166.226 58.4091H165.266C163.159 58.4091 161.533 57.8491 160.386 56.7291C159.239 55.6091 158.666 53.9958 158.666 51.8891V44.5291C158.666 42.4224 159.239 40.8091 160.386 39.6891C161.533 38.5691 163.159 38.0091 165.266 38.0091H174.506C175.093 38.0091 175.386 38.2891 175.386 38.8491V57.5691C175.386 58.1291 175.093 58.4091 174.506 58.4091H171.146C170.586 58.4091 170.306 58.1291 170.306 57.5691V56.2491H170.146C169.853 56.9691 169.333 57.5158 168.586 57.8891C167.839 58.2358 167.053 58.4091 166.226 58.4091ZM170.306 50.9691V42.8491C170.306 42.5558 170.146 42.4091 169.826 42.4091H166.066C165.213 42.4091 164.613 42.5958 164.266 42.9691C163.919 43.3158 163.746 43.9158 163.746 44.7691V51.6491C163.746 52.5024 163.919 53.1158 164.266 53.4891C164.613 53.8358 165.213 54.0091 166.066 54.0091H167.546C169.386 54.0091 170.306 52.9958 170.306 50.9691ZM179.809 42.4091H178.209C177.889 42.4091 177.662 42.3558 177.529 42.2491C177.422 42.1424 177.369 41.9291 177.369 41.6091V38.8491C177.369 38.2891 177.649 38.0091 178.209 38.0091H179.809C180.102 38.0091 180.249 37.8624 180.249 37.5691V33.7691C180.249 33.2091 180.542 32.9291 181.129 32.9291H184.489C185.049 32.9291 185.329 33.2091 185.329 33.7691V37.5691C185.329 37.8624 185.489 38.0091 185.809 38.0091H188.929C189.489 38.0091 189.769 38.2891 189.769 38.8491V41.6091C189.769 41.9024 189.702 42.1158 189.569 42.2491C189.462 42.3558 189.249 42.4091 188.929 42.4091H185.809C185.489 42.4091 185.329 42.5558 185.329 42.8491V51.6891C185.329 52.5158 185.516 53.1158 185.889 53.4891C186.262 53.8358 186.876 54.0091 187.729 54.0091H189.329C189.889 54.0091 190.169 54.2891 190.169 54.8491V57.6091C190.169 57.9024 190.102 58.1158 189.969 58.2491C189.862 58.3558 189.649 58.4091 189.329 58.4091H186.889C184.782 58.4091 183.142 57.8491 181.969 56.7291C180.822 55.6091 180.249 54.0091 180.249 51.9291V42.8491C180.249 42.5558 180.102 42.4091 179.809 42.4091ZM202.831 58.4091H199.271C197.164 58.4091 195.537 57.8491 194.391 56.7291C193.244 55.6091 192.671 53.9958 192.671 51.8891V44.5291C192.671 42.4224 193.244 40.8091 194.391 39.6891C195.537 38.5691 197.164 38.0091 199.271 38.0091H202.831C204.911 38.0091 206.524 38.5824 207.671 39.7291C208.844 40.8491 209.431 42.4491 209.431 44.5291V51.8891C209.431 53.9691 208.844 55.5824 207.671 56.7291C206.524 57.8491 204.911 58.4091 202.831 58.4091ZM200.031 54.0491H202.071C202.924 54.0491 203.524 53.8758 203.871 53.5291C204.244 53.1824 204.431 52.5824 204.431 51.7291V44.6891C204.431 43.8358 204.244 43.2358 203.871 42.8891C203.524 42.5424 202.924 42.3691 202.071 42.3691H200.031C199.177 42.3691 198.577 42.5424 198.231 42.8891C197.884 43.2358 197.711 43.8358 197.711 44.6891V51.7291C197.711 52.5824 197.884 53.1824 198.231 53.5291C198.577 53.8758 199.177 54.0491 200.031 54.0491ZM217.262 58.4091H213.862C213.302 58.4091 213.022 58.1291 213.022 57.5691V38.8491C213.022 38.2891 213.302 38.0091 213.862 38.0091H217.262C217.822 38.0091 218.102 38.2891 218.102 38.8491V40.2091H218.262C218.555 39.4891 219.075 38.9424 219.822 38.5691C220.569 38.1958 221.355 38.0091 222.182 38.0091H223.622C224.155 38.0091 224.422 38.2891 224.422 38.8491V41.6091C224.422 41.9291 224.355 42.1558 224.222 42.2891C224.115 42.3958 223.915 42.4358 223.622 42.4091H220.862C219.022 42.4091 218.102 43.4491 218.102 45.5291V57.5691C218.102 58.1291 217.822 58.4091 217.262 58.4091Z" fill="#3F4075"/>
<rect x="62.1091" y="10.5363" width="94.2727" height="17.1909" rx="8.59545" fill="#FE7B79"/>
<path d="M74.3546 22.8727C74.2106 22.8727 74.1386 22.8047 74.1386 22.6687C74.1386 22.6127 74.1506 22.5487 74.1746 22.4767L77.2826 15.0727C77.3386 14.9367 77.3986 14.8447 77.4626 14.7967C77.5346 14.7407 77.6346 14.7127 77.7626 14.7127H78.6386C78.7666 14.7127 78.8626 14.7407 78.9266 14.7967C78.9906 14.8447 79.0506 14.9367 79.1066 15.0727L82.2146 22.4767C82.2386 22.5487 82.2506 22.6127 82.2506 22.6687C82.2506 22.8047 82.1786 22.8727 82.0346 22.8727H80.5826C80.4706 22.8727 80.3866 22.8567 80.3306 22.8247C80.2826 22.7847 80.2386 22.7167 80.1986 22.6207L79.6466 21.2047H76.7306L76.1906 22.6207C76.1506 22.7167 76.1026 22.7847 76.0466 22.8247C75.9986 22.8567 75.9186 22.8727 75.8066 22.8727H74.3546ZM79.1906 19.8247L78.1946 17.2327L77.1866 19.8247H79.1906ZM83.7895 22.8727C83.5975 22.8727 83.4575 22.8327 83.3695 22.7527C83.2895 22.6647 83.2495 22.5327 83.2495 22.3567V15.2407C83.2495 15.0647 83.2895 14.9327 83.3695 14.8447C83.4575 14.7567 83.5975 14.7127 83.7895 14.7127H84.6895C84.8895 14.7127 85.0295 14.7567 85.1095 14.8447C85.1895 14.9247 85.2295 15.0567 85.2295 15.2407V21.4207H88.6135C88.8055 21.4207 88.9375 21.4607 89.0095 21.5407C89.0815 21.6207 89.1175 21.7527 89.1175 21.9367V22.3687C89.1175 22.5527 89.0815 22.6847 89.0095 22.7647C88.9375 22.8367 88.8055 22.8727 88.6135 22.8727H83.7895ZM90.3988 22.8727C90.2068 22.8727 90.0668 22.8327 89.9788 22.7527C89.8988 22.6647 89.8588 22.5327 89.8588 22.3567V15.2407C89.8588 15.0647 89.8988 14.9327 89.9788 14.8447C90.0668 14.7567 90.2068 14.7127 90.3988 14.7127H91.2988C91.4988 14.7127 91.6388 14.7567 91.7188 14.8447C91.7988 14.9247 91.8388 15.0567 91.8388 15.2407V21.4207H95.2228C95.4148 21.4207 95.5468 21.4607 95.6188 21.5407C95.6908 21.6207 95.7268 21.7527 95.7268 21.9367V22.3687C95.7268 22.5527 95.6908 22.6847 95.6188 22.7647C95.5468 22.8367 95.4148 22.8727 95.2228 22.8727H90.3988ZM101.332 22.8727C101.14 22.8727 101 22.8327 100.912 22.7527C100.832 22.6647 100.792 22.5327 100.792 22.3567V15.2407C100.792 15.0647 100.832 14.9327 100.912 14.8447C101 14.7567 101.14 14.7127 101.332 14.7127H102.232C102.432 14.7127 102.572 14.7567 102.652 14.8447C102.732 14.9247 102.772 15.0567 102.772 15.2407V22.3567C102.772 22.5327 102.732 22.6647 102.652 22.7527C102.572 22.8327 102.432 22.8727 102.232 22.8727H101.332ZM104.532 22.8727C104.34 22.8727 104.2 22.8327 104.112 22.7527C104.032 22.6647 103.992 22.5327 103.992 22.3567V15.2287C103.992 15.0527 104.032 14.9247 104.112 14.8447C104.2 14.7567 104.344 14.7127 104.544 14.7127H105.288C105.424 14.7127 105.524 14.7327 105.588 14.7727C105.66 14.8047 105.736 14.8727 105.816 14.9767L109.176 19.7167V15.2407C109.176 15.0647 109.216 14.9327 109.296 14.8447C109.384 14.7567 109.524 14.7127 109.716 14.7127H110.616C110.816 14.7127 110.956 14.7567 111.036 14.8447C111.116 14.9247 111.156 15.0567 111.156 15.2407V22.3567C111.156 22.5327 111.116 22.6647 111.036 22.7527C110.956 22.8327 110.816 22.8727 110.616 22.8727H109.86C109.732 22.8727 109.632 22.8567 109.56 22.8247C109.496 22.7847 109.424 22.7127 109.344 22.6087L105.972 17.8807V22.3567C105.972 22.5327 105.932 22.6647 105.852 22.7527C105.772 22.8327 105.632 22.8727 105.432 22.8727H104.532ZM120.654 23.0527C119.294 23.0527 118.254 22.6807 117.534 21.9367C116.822 21.1927 116.466 20.1447 116.466 18.7927C116.466 17.4407 116.822 16.3927 117.534 15.6487C118.254 14.9047 119.294 14.5327 120.654 14.5327C122.006 14.5327 123.038 14.9047 123.75 15.6487C124.47 16.3927 124.83 17.4407 124.83 18.7927C124.83 20.1447 124.47 21.1927 123.75 21.9367C123.038 22.6807 122.006 23.0527 120.654 23.0527ZM120.654 21.6247C121.382 21.6247 121.93 21.3887 122.298 20.9167C122.674 20.4367 122.862 19.7287 122.862 18.7927C122.862 17.8567 122.674 17.1527 122.298 16.6807C121.93 16.2007 121.382 15.9607 120.654 15.9607C119.918 15.9607 119.362 16.2007 118.986 16.6807C118.618 17.1527 118.434 17.8567 118.434 18.7927C118.434 19.7287 118.618 20.4367 118.986 20.9167C119.362 21.3887 119.918 21.6247 120.654 21.6247ZM126.352 22.8727C126.16 22.8727 126.02 22.8327 125.932 22.7527C125.852 22.6647 125.812 22.5327 125.812 22.3567V15.2287C125.812 15.0527 125.852 14.9247 125.932 14.8447C126.02 14.7567 126.164 14.7127 126.364 14.7127H127.108C127.244 14.7127 127.344 14.7327 127.408 14.7727C127.48 14.8047 127.556 14.8727 127.636 14.9767L130.996 19.7167V15.2407C130.996 15.0647 131.036 14.9327 131.116 14.8447C131.204 14.7567 131.344 14.7127 131.536 14.7127H132.436C132.636 14.7127 132.776 14.7567 132.856 14.8447C132.936 14.9247 132.976 15.0567 132.976 15.2407V22.3567C132.976 22.5327 132.936 22.6647 132.856 22.7527C132.776 22.8327 132.636 22.8727 132.436 22.8727H131.68C131.552 22.8727 131.452 22.8567 131.38 22.8247C131.316 22.7847 131.244 22.7127 131.164 22.6087L127.792 17.8807V22.3567C127.792 22.5327 127.752 22.6647 127.672 22.7527C127.592 22.8327 127.452 22.8727 127.252 22.8727H126.352ZM134.743 22.8727C134.551 22.8727 134.411 22.8327 134.323 22.7527C134.243 22.6647 134.203 22.5327 134.203 22.3567V15.2407C134.203 15.0647 134.243 14.9327 134.323 14.8447C134.411 14.7567 134.551 14.7127 134.743 14.7127H139.723C139.915 14.7127 140.047 14.7527 140.119 14.8327C140.191 14.9047 140.227 15.0327 140.227 15.2167V15.6607C140.227 15.8447 140.191 15.9767 140.119 16.0567C140.047 16.1367 139.915 16.1767 139.723 16.1767H136.183V18.0727H138.655C138.847 18.0727 138.979 18.1127 139.051 18.1927C139.123 18.2647 139.159 18.3927 139.159 18.5767V18.9967C139.159 19.1807 139.123 19.3127 139.051 19.3927C138.979 19.4727 138.847 19.5127 138.655 19.5127H136.183V21.4207H139.711C139.903 21.4207 140.035 21.4607 140.107 21.5407C140.179 21.6207 140.215 21.7527 140.215 21.9367V22.3687C140.215 22.5527 140.179 22.6847 140.107 22.7647C140.035 22.8367 139.903 22.8727 139.711 22.8727H134.743Z" fill="white"/>
</g>
<defs>
<clipPath id="clip0_274_489">
<rect width="244" height="66.5455" fill="white"/>
</clipPath>
<clipPath id="clip1_274_489">
<rect width="43.2545" height="54.4771" fill="white" transform="translate(8.8728 6.28647)"/>
</clipPath>
</defs>
</svg>
